<svg width="40" height="40" viewBox="0 0 40 40" fill="none" xmlns="http://www.w3.org/2000/svg">
<path d="M28.3333 1.66667C28.3333 0.746667 27.5883 0 26.6667 0C25.745 0 25 0.746667 25 1.66667V5C25 5.92 25.745 6.66667 26.6667 6.66667C27.5883 6.66667 28.3333 5.92 28.3333 5V1.66667ZM8.33333 5C8.33333 5.92 7.58833 6.66667 6.66667 6.66667C5.745 6.66667 5 5.92 5 5V1.66667C5 0.746667 5.745 0 6.66667 0C7.58833 0 8.33333 0.746667 8.33333 1.66667V5ZM30 13.3333V30H3.33333V13.3333H30ZM33.3333 3.33333H30V5C30 6.83833 28.505 8.33333 26.6667 8.33333C24.8283 8.33333 23.3333 6.83833 23.3333 5V3.33333H10V5C10 6.83833 8.505 8.33333 6.66667 8.33333C4.82833 8.33333 3.33333 6.83833 3.33333 5V3.33333H0V33.3333H33.3333V3.33333ZM40 8.33333V40H3.33333V36.6667H36.6667V8.33333H40ZM11.6667 20H8.33333V16.6667H11.6667V20ZM18.3333 20H15V16.6667H18.3333V20ZM25 20H21.6667V16.6667H25V20ZM11.6667 26.6667H8.33333V23.3333H11.6667V26.6667ZM18.3333 26.6667H15V23.3333H18.3333V26.6667ZM25 26.6667H21.6667V23.3333H25V26.6667Z" fill="white"/>
</svg>
