<svg width="40" height="40" viewBox="0 0 40 40" fill="none" xmlns="http://www.w3.org/2000/svg">
<g clip-path="url(#clip0_9_153)">
<path d="M36.4233 22.805L39.7533 23.07C39.5333 24.4933 39.1683 25.8633 38.6667 27.17L35.6667 25.6617C36 24.7433 36.255 23.79 36.4233 22.805ZM32.1767 35.8483L29.8217 33.4433C29.0117 34.0367 28.145 34.5567 27.23 34.9983L28.345 38.1633C29.7133 37.535 30.9967 36.7567 32.1767 35.8483ZM34.22 28.6667C33.6617 29.5767 33.0217 30.4283 32.305 31.2133L34.645 33.6017C35.6167 32.5567 36.4767 31.4083 37.21 30.1717L34.22 28.6667ZM0 20C0 31.045 8.95833 40 20.0067 40C21.8083 40 23.5467 39.74 25.2067 39.2933L24.0983 36.1367C22.7867 36.47 21.42 36.6667 20.0067 36.6667C10.8133 36.6667 3.335 29.19 3.335 20C3.335 10.81 10.8133 3.33333 20.0067 3.33333C23.7317 3.33333 27.1617 4.57333 29.9383 6.64833L26.5217 10.0633L38.2133 12.32L35.955 0.631667L32.315 4.27C28.9217 1.60667 24.6567 0 20.0067 0C8.95833 0 0 8.955 0 20ZM39.6217 16.0683H36.1617C36.4333 17.17 36.5967 18.3083 36.6417 19.48L40 19.7483C39.9833 18.49 39.8583 17.2583 39.6217 16.0683ZM24.6133 25V22.635H20.29V20.4767L24.8267 14.3883H26.9733V20.5367H28.3333V22.635H26.975V25H24.6133ZM24.6133 20.535V17.71L22.5083 20.535H24.6133ZM11.6667 25C11.6667 23.3983 12.125 22.1517 13.7233 20.9683C15.605 19.575 17.04 19.0267 17.04 17.7367C17.04 16.8833 16.5267 16.3533 15.7 16.3533C14.55 16.3533 14.275 17.5583 14.275 18.705H11.9067C11.8067 15.735 13.4917 14.1833 15.8033 14.1833C17.9483 14.1833 19.5033 15.61 19.5033 17.5767C19.5033 18.5583 19.1983 19.3367 18.5433 20.025C17.5083 21.1167 15.9567 21.6667 14.9383 22.8283H19.5617V25H11.6667Z" fill="white"/>
</g>
<defs>
<clipPath id="clip0_9_153">
<rect width="40" height="40" fill="white"/>
</clipPath>
</defs>
</svg>
