<svg width="40" height="40" viewBox="0 0 40 40" fill="none" xmlns="http://www.w3.org/2000/svg">
<g clip-path="url(#clip0_14_91)">
<path fill-rule="evenodd" clip-rule="evenodd" d="M20 0C8.95667 0 0 8.95333 0 20C0 31.045 8.95667 40 20 40C31.045 40 40 31.045 40 20C40 8.95333 31.045 0 20 0ZM30.0017 28.195C30.9217 28.195 31.6667 27.4483 31.6667 26.53V13.3317C31.6667 12.4133 30.92 11.6667 30.0017 11.6667H9.99833C9.08 11.6667 8.33333 12.4133 8.33333 13.3317V26.53C8.33333 27.4483 9.08 28.195 9.99833 28.195H30.0017ZM20 22.2783L10.9167 15.975L10.8983 27.2217H29.0633V15.975L20 22.2783ZM28.6233 12.6383C26.0783 14.4117 20 18.695 20 18.695L11.3283 12.6383H28.6233Z" fill="white"/>
</g>
<defs>
<clipPath id="clip0_14_91">
<rect width="40" height="40" fill="white"/>
</clipPath>
</defs>
</svg>
