<svg width="25" height="26" viewBox="0 0 25 26" fill="none" xmlns="http://www.w3.org/2000/svg">
<path d="M9.06252 18.5208C8.87155 18.3299 8.77606 18.0868 8.77606 17.7917C8.77606 17.4965 8.87155 17.2535 9.06252 17.0625L13.125 13L9.06252 8.9375C8.87155 8.74653 8.77606 8.50347 8.77606 8.20834C8.77606 7.9132 8.87155 7.67014 9.06252 7.47917C9.25349 7.2882 9.49655 7.19271 9.79169 7.19271C10.0868 7.19271 10.3299 7.2882 10.5209 7.47917L15.3125 12.2708C15.4167 12.375 15.4906 12.4878 15.5344 12.6094C15.5775 12.7309 15.599 12.8611 15.599 13C15.599 13.1389 15.5775 13.2691 15.5344 13.3906C15.4906 13.5122 15.4167 13.625 15.3125 13.7292L10.5209 18.5208C10.3299 18.7118 10.0868 18.8073 9.79169 18.8073C9.49655 18.8073 9.25349 18.7118 9.06252 18.5208Z" fill="white"/>
</svg>
