<svg width="40" height="40" viewBox="0 0 40 40" fill="white" xmlns="http://www.w3.org/2000/svg">
<path d="M20 3.33333C29.19 3.33333 36.6667 10.81 36.6667 20C36.6667 29.19 29.19 36.6667 20 36.6667C10.81 36.6667 3.33333 29.19 3.33333 20C3.33333 10.81 10.81 3.33333 20 3.33333ZM20 0C8.955 0 0 8.955 0 20C0 31.045 8.955 40 20 40C31.045 40 40 31.045 40 20C40 8.955 31.045 0 20 0ZM30.4167 14.8183L28.0483 12.47L17.8733 22.8333L12.7433 17.9383L10.4167 20.3317L17.9167 27.53L30.4167 14.8183Z" fill="white"/>
</svg>
